<svg xmlns="http://www.w3.org/2000/svg" viewBox="0 0 128 128" width="128" height="128">
    <rect x="0" y="0" width="128" height="128" fill="none"/>

    <path d="M96,40 L32,40 C18.745,40 8,50.745 8,64 C8,77.255 18.745,88 32,88 L96,88 C109.255,88 120,77.255 120,64 C120,50.745 109.255,40 96,40 Z" fill="#a0d0E0"/>

    <path d="M120,64 C120,52 111,42 100,40 L40,40 L80,88 L96,88 C109.255,88 120,77.255 120,64 Z" fill="#0066DA"/>

    <path d="M32,48 L90,48 L60,80 L32,80 C23.163,80 16,72.837 16,64 C16,55.163 23.163,48 32,48 Z" fill="#FFFFFF"/>
</svg>